<?xml-stylesheet href="main.css" type="text/css"?>
<svg version="1.1" viewBox="0.0 0.0 960.0 720.0" fill="none" stroke="none" stroke-linecap="square" stroke-miterlimit="10" xmlns:xlink="http://www.w3.org/1999/xlink" xmlns="http://www.w3.org/2000/svg">
	<clipPath id="p.0">
		<path d="m0 0l960.0 0l0 720.0l-960.0 0l0 -720.0z" clip-rule="nonzero" />
	</clipPath>
	<g clip-path="url(#p.0)">
		<path fill="#ffffff" class="svg-path" fill-opacity="0.0" d="m0 0l960.0 0l0 720.0l-960.0 0z"	fill-rule="evenodd" />
		<path fill="#ffffff" class="svg-path" d="m296.15326 366.87265l50.49182 3.3569336E-4l15.602509 -47.785065l15.602509 47.785065l50.49185 -3.3569336E-4l-40.84897 29.53247l15.60318 47.78485l-40.84857 -29.53299l-40.84854 29.53299l15.603149 -47.78485z" fill-rule="evenodd" />
		<path fill="#ffffff" class="svg-path" d="m143.34962 321.15747l52.17314 120.96857l27.647552 0l52.370026 -120.96857l-27.816315 0l-37.353134 86.38626l0 0l0 0l0 0l0 0l0 0l-36.786163 -86.38626z" fill-rule="evenodd" />
		<path fill="#ffffff" class="svg-path" d="m461.36536 321.16528l0 120.96857l88.65216 0l0 -22.809937l-60.667084 0l0 -98.15863z" fill-rule="evenodd" />
		<path fill="#ffffff" class="svg-path" d="m622.2512 342.93457c5.4188843 0 10.425293 0.9281616 15.019104 2.7844543c4.61261 1.8375244 8.615845 4.4907227 12.009705 7.959564c3.4125366 3.4500732 6.065735 7.537689 7.9595337 12.262787c1.8937988 4.70636 2.8406982 9.947113 2.8406982 15.7222595c0 5.7564087 -0.9468994 10.997131 -2.8406982 15.7222595c-1.8937988 4.725128 -4.5750732 8.812714 -8.043945 12.262787c-3.4500732 3.4501038 -7.453308 6.1032715 -12.009644 7.9595947c-4.5375977 1.8375244 -9.515869 2.7563171 -14.934753 2.7563171c-5.4188843 0 -10.434631 -0.9187927 -15.047241 -2.7563171c-4.61261 -1.8563232 -8.615845 -4.509491 -12.009644 -7.9595947c-3.3938599 -3.4500732 -6.047058 -7.565796 -7.9595947 -12.347168c-1.8937988 -4.781372 -2.8406982 -9.993988 -2.8406982 -15.637878c0 -5.7751465 0.9468994 -11.0159 2.8406982 -15.7222595c1.9125366 -4.7250977 4.593872 -8.812714 8.043945 -12.262787c3.468872 -3.4688416 7.472046 -6.12204 12.009705 -7.959564c4.5563354 -1.8562927 9.543945 -2.7844543 14.96283 -2.7844543zm0 -23.850586c-9.450195 0 -18.206665 1.5563049 -26.26941 4.6688538c-8.062683 3.1125793 -15.094116 7.490814 -21.094238 13.134705c-5.9813843 5.6438904 -10.612732 12.272186 -13.894104 19.884857c-3.281311 7.593933 -4.921997 15.891022 -4.921997 24.891235c0 8.981476 1.640686 17.278564 4.921997 24.891235c3.281372 7.593933 7.8845825 14.21286 13.809753 19.85672c5.9438477 5.6438904 12.975281 10.022125 21.094238 13.134705c8.1189575 3.1125793 16.959778 4.6688538 26.522522 4.6688538c9.450256 0 18.178589 -1.5562744 26.184998 -4.6688538c8.00647 -3.1125793 14.972229 -7.462677 20.8974 -13.0503235c5.9439087 -5.587616 10.584656 -12.206543 13.922241 -19.85672c3.3375244 -7.6689453 5.0063477 -15.994141 5.0063477 -24.975616c0 -9.112732 -1.6688232 -17.437927 -5.0063477 -24.975616c-3.3375854 -7.556427 -7.9783325 -14.156586 -13.922241 -19.800476c-5.925171 -5.6438904 -12.89093 -10.022125 -20.8974 -13.134705c-8.006409 -3.1125488 -16.791016 -4.6688538 -26.35376 -4.6688538z" fill-rule="evenodd" />
		<path fill="#ffffff" class="svg-path" d="m760.30707 343.97522c8.643982 0 15.094116 1.8469238 19.350464 5.5407715c4.2751465 3.6750793 6.4126587 8.859589 6.4126587 15.553497c0 6.5626526 -2.1375122 11.719025 -6.4126587 15.469116c-4.2563477 3.7313538 -10.706482 5.5970154 -19.350464 5.5970154l-22.809937 0l0 -42.1604zm-50.794983 -22.809937l0 120.96857l27.985046 0l0 -33.69455l24.38501 0c0.440979 0 0.8795166 -0.0028686523 1.3154907 -0.008605957l0 0l23.210083 33.703156l30.235107 0l-26.99884 -38.772064l0 0c0.074523926 -0.03237915 0.14892578 -0.06491089 0.22320557 -0.09762573c7.8377075 -3.4688416 13.884705 -8.456451 18.141052 -14.96286c4.2563477 -6.5064087 6.3845215 -14.250336 6.3845215 -23.231812c0 -13.7065735 -4.6688232 -24.450592 -14.006592 -32.232025c-9.31897 -7.7814636 -22.388 -11.67218 -39.207214 -11.67218z" fill-rule="evenodd" />
	</g>
</svg>